<svg xmlns="http://www.w3.org/2000/svg" viewBox="0 0 87.07 87.07"><defs><style>.cls-1{fill:#0b4df5;}.cls-2{fill:#fff;}</style></defs><g id="Layer_2" data-name="Layer 2"><g id="Layer_20" data-name="Layer 20"><path class="cls-1" d="M43.54,0h0A43.53,43.53,0,0,1,87.07,43.54h0A43.53,43.53,0,0,1,43.54,87.07h0A43.53,43.53,0,0,1,0,43.54H0A43.54,43.54,0,0,1,43.54,0Z"/><path class="cls-2" d="M65.56,49.33l-.42-.39a5.16,5.16,0,0,1-.86-.89,5.19,5.19,0,0,1-.34-1.19l-.13-.56a2.69,2.69,0,0,0-2.48-2.08l-.57,0a5,5,0,0,1-1.23-.13,4.49,4.49,0,0,1-1-.69L58.05,43a2.69,2.69,0,0,0-3.23,0l-.46.34a4.47,4.47,0,0,1-1,.69,1.38,1.38,0,0,1-.36.08,19.34,19.34,0,0,0-8.57-4.47,10.21,10.21,0,1,0-8.81,0A19.45,19.45,0,0,0,20.66,56.52a.77.77,0,0,0,.19.58.75.75,0,0,0,.56.25H47.56A2.68,2.68,0,0,0,49,58.75l.53.23.22.09-2.09,4.49a.89.89,0,0,0,.11,1,.91.91,0,0,0,.89.35l2.11-.37,1.07,1.86a.94.94,0,0,0,.8.46h0a.91.91,0,0,0,.79-.54l2.06-4.42a3.6,3.6,0,0,1,.92-.21,3.56,3.56,0,0,1,.93.21l2,4.42a.93.93,0,0,0,.8.54h0a.94.94,0,0,0,.8-.46l1.08-1.86,2.11.37a.92.92,0,0,0,1-1.3l-2.09-4.49.23-.09.52-.23A2.68,2.68,0,0,0,65.51,56c0-.21-.05-.4-.07-.57a5.13,5.13,0,0,1-.08-1.23,4.53,4.53,0,0,1,.5-1.13c.07-.15.16-.32.26-.51a2.68,2.68,0,0,0-.56-3.18ZM46.75,52.51c.09.19.18.36.26.51a5.16,5.16,0,0,1,.5,1.13,5.13,5.13,0,0,1-.08,1.23c0,.14,0,.3-.06.47H41.69l1.89-2.1a.74.74,0,0,0,.18-.65l-1-4.68.19.22a.74.74,0,0,0,.57.27h.08a.78.78,0,0,0,.58-.38l3.45-6.15a17.91,17.91,0,0,1,3.21,2,2.68,2.68,0,0,0-1.81,2l-.13.56a4.58,4.58,0,0,1-.35,1.19,5,5,0,0,1-.85.89q-.19.16-.42.39a2.66,2.66,0,0,0-.56,3.18ZM36.56,46.85l-2.84-5.06a15.8,15.8,0,0,1,1.61-.51l3.59,2.77ZM39.23,46,40,45.1l.77.92,1.45,7L40,55.48,37.78,53Zm1.84-2,3.58-2.77a16.81,16.81,0,0,1,1.61.52l-2.83,5.05ZM31.29,30.47A8.7,8.7,0,1,1,40,39.17h0A8.73,8.73,0,0,1,31.29,30.47ZM40,40.67h0a17.51,17.51,0,0,1,2.72.21L40,43l-2.73-2.12a18.86,18.86,0,0,1,2.73-.2Zm-7.66,1.71,3.45,6.15a.78.78,0,0,0,.58.38h.08a.74.74,0,0,0,.57-.27l.19-.22-1,4.68a.74.74,0,0,0,.18.65l1.89,2.1h-16A17.83,17.83,0,0,1,32.33,42.38ZM52.56,64.64l-.79-1.35a.75.75,0,0,0-.77-.37l-1.54.27L51,60l.37.57.31.48a2.65,2.65,0,0,0,2,1.21Zm9.31-1.72a.77.77,0,0,0-.78.37l-.78,1.35-1.13-2.43a2.67,2.67,0,0,0,2-1.21l.31-.48L61.9,60l1.51,3.24Zm2.91-11.09-.26.51A3.9,3.9,0,0,0,64,55.57c0,.17,0,.35.07.56a1.18,1.18,0,0,1-.72,1.24l-.52.22a3.92,3.92,0,0,0-2.51,2.11l-.31.48a1.2,1.2,0,0,1-1.35.49l-.53-.17a5.87,5.87,0,0,0-1.65-.36,5.75,5.75,0,0,0-1.64.36l-.54.17a1.18,1.18,0,0,1-1.34-.49l-.31-.48a3.94,3.94,0,0,0-2.52-2.11l-.52-.22a1.16,1.16,0,0,1-.71-1.24c0-.21,0-.39.07-.56a3.9,3.9,0,0,0-.58-3.23l-.25-.51a1.16,1.16,0,0,1,.25-1.41l.41-.38a3.91,3.91,0,0,0,1.64-2.85l.13-.55a1.16,1.16,0,0,1,1.1-.92l.56,0a3.9,3.9,0,0,0,3.09-1.12l.45-.34a1.16,1.16,0,0,1,1.43,0l.45.34a3.9,3.9,0,0,0,3.09,1.12l.56,0a1.18,1.18,0,0,1,1.1.92c0,.21.09.39.12.55A4,4,0,0,0,64.12,50l.41.38a1.17,1.17,0,0,1,.25,1.41Zm-8.35-5.1a5.62,5.62,0,1,0,5.62,5.62A5.62,5.62,0,0,0,56.43,46.73Zm0,9.74a4.12,4.12,0,1,1,4.12-4.12A4.13,4.13,0,0,1,56.43,56.47Z"/></g></g></svg>