<svg xmlns="http://www.w3.org/2000/svg" viewBox="0 0 87.07 87.07"><defs><style>.cls-1{fill:#0b4df5;}.cls-2{fill:#fff;}</style></defs><g id="Layer_2" data-name="Layer 2"><g id="Layer_20" data-name="Layer 20"><path class="cls-1" d="M43.54,0h0A43.53,43.53,0,0,1,87.07,43.54h0A43.53,43.53,0,0,1,43.54,87.07h0A43.53,43.53,0,0,1,0,43.54H0A43.54,43.54,0,0,1,43.54,0Z"/><path class="cls-2" d="M35.73,36.33a.7.7,0,0,0-.3-.45L34.16,35l1.27-.84a.73.73,0,0,0,.25-.93L35,31.81a.72.72,0,0,0-.76-.39l-5,.71H26.33a.73.73,0,0,0-.4.13l-2.17,1.45a.7.7,0,0,0-.33.6v2.17a.73.73,0,0,0,.73.73h1.56L26.34,41a.84.84,0,0,0,.2.4l2.59,2.58-.59,1.75a.75.75,0,0,0,.18.74l2,2,.69,4.12a.69.69,0,0,0,.31.48l2.17,1.45a.79.79,0,0,0,.41.13.59.59,0,0,0,.29-.07A.7.7,0,0,0,35,54l.69-4.83L37,47.87a.62.62,0,0,0,.14-.19l.73-1.45a.73.73,0,0,0-.14-.83L36.33,44a9.05,9.05,0,0,0,1.6-3.9,4.36,4.36,0,0,0-2.2-3.78Zm-8,4.16-.69-4.12a.73.73,0,0,0-.72-.61H24.88V34.7l1.67-1.12h2.79l4.55-.65.21.41-1.65,1.09a.73.73,0,0,0,0,1.21l.31.2a4.36,4.36,0,0,0-3.53,4.27,6.93,6.93,0,0,0,1,2.88Zm8.58,5.56-.43.88-1.37,1.36a.85.85,0,0,0-.21.41l-.56,3.94-1-.64-.68-4a.67.67,0,0,0-.2-.39l-1.86-1.86L30.65,44a.64.64,0,0,0,0-.2A34.22,34.22,0,0,0,33,47.09a.71.71,0,0,0,.56.27.74.74,0,0,0,.57-.27c.14-.19.71-.9,1.37-1.85Zm-2.74-.6c-1.3-1.74-2.9-4.24-2.9-5.34a2.9,2.9,0,0,1,5.8,0C36.48,41.21,34.88,43.71,33.58,45.45Z"/><circle class="cls-2" cx="33.58" cy="40.11" r="1.45"/><circle class="cls-2" cx="53.88" cy="29.24" r="1.45"/><path class="cls-2" d="M65.11,22.08a.71.71,0,0,0-.73,0l-7.2,4.32a4.34,4.34,0,0,0-6.6,0l-7.2-4.32a.72.72,0,0,0-.75,0l-10.5,6.3-10.5-6.3a.71.71,0,0,0-.73,0,.72.72,0,0,0-.37.63V56.78a.72.72,0,0,0,.36.62l10.87,6.53a.75.75,0,0,0,.74,0L43,57.63l10.5,6.3a.73.73,0,0,0,.74,0L65.13,57.4a.73.73,0,0,0,.35-.62V22.71a.72.72,0,0,0-.37-.63ZM53.88,26.34a2.9,2.9,0,0,1,2.9,2.9c0,1.1-1.6,3.6-2.9,5.33-1.3-1.73-2.9-4.23-2.9-5.33A2.9,2.9,0,0,1,53.88,26.34ZM59,36.66l.62,2.5-1.88,1.89a.68.68,0,0,0-.18.28l-.35,1.06-1.35-1.34a.69.69,0,0,0-.58-.21.71.71,0,0,0-.53.32l-.63.94-.26-.77a.69.69,0,0,0-.41-.44.74.74,0,0,0-.6,0L50.4,42.13l-1.08-1.08a.73.73,0,0,0-.52-.22H45.91a.73.73,0,0,0-.52,1.24l2.13,2.12,1.28,1.94v1.8L47,52.16l-1.86-.93-.68-5.41a.73.73,0,0,0-.4-.56l-2.37-1.19L42.19,42l4.12-2.74a.72.72,0,0,0,.32-.6V36.48a.72.72,0,0,0-.34-.61.7.7,0,0,0-.71,0l-1.85.92v-.64l2.45-1.84,5.31-.59c.83,1.27,1.65,2.3,1.82,2.52a.74.74,0,0,0,.57.27.71.71,0,0,0,.56-.27c.16-.19.81-1,1.53-2.07l4.36.67L59.17,36a.71.71,0,0,0-.19.69ZM64,56.37,53.88,62.46l-10.5-6.3a.72.72,0,0,0-.75,0l-10.5,6.3L22,56.37V24l9.78,5.87a.75.75,0,0,0,.74,0L43,23.56l6.82,4.09a4.41,4.41,0,0,0-.3,1.59,7.3,7.3,0,0,0,1.12,3.09l-4.83.53a.89.89,0,0,0-.35.14l-2.9,2.18a.73.73,0,0,0-.29.58v2.17a.71.71,0,0,0,.35.62.73.73,0,0,0,.7,0l1.85-.92v.61l-4,2.69a.75.75,0,0,0-.3.42l-.72,2.9a.73.73,0,0,0,.38.83l2.55,1.27.68,5.42a.72.72,0,0,0,.39.56L47,53.81a.72.72,0,0,0,.33.07.67.67,0,0,0,.24,0,.72.72,0,0,0,.42-.4l2.18-5.07a.71.71,0,0,0,0-.29V45.91a.68.68,0,0,0-.12-.4l-1.45-2.18a.31.31,0,0,0-.09-.11l-.93-.94h.84l1.24,1.24a.73.73,0,0,0,.84.14l2.15-1.08L53.19,44a.73.73,0,0,0,.59.49.71.71,0,0,0,.7-.31l1-1.44L57,44.25a.74.74,0,0,0,.68.19.72.72,0,0,0,.52-.48l.67-2,2.06-2.05a.73.73,0,0,0,.19-.69l-.63-2.5,1.89-1.89a.72.72,0,0,0,.17-.74.75.75,0,0,0-.58-.49l-5.13-.79a8.23,8.23,0,0,0,1.4-3.56,4.41,4.41,0,0,0-.3-1.59L64,24Z"/><path class="cls-2" d="M42.28,34.31V32.13a.72.72,0,0,0-.72-.72h-2.9a.74.74,0,0,0-.61.32L36.6,33.91a.73.73,0,0,0,0,.8l1.45,2.18a.78.78,0,0,0,.48.31h.13a.68.68,0,0,0,.43-.15L42,34.89a.73.73,0,0,0,.29-.58ZM40.83,34l-2,1.49-.75-1.13,1-1.45h1.79Z"/><path class="cls-2" d="M61.11,46.46a.76.76,0,0,0-.4-.49.77.77,0,0,0-.63,0l-4.35,2.18a.71.71,0,0,0-.4.65V51a.73.73,0,0,0,.72.73h2L60,53a.66.66,0,0,0,.4.13.74.74,0,0,0,.71-.55l.72-2.9a.69.69,0,0,0,0-.35ZM60,51.26l-1.32-.88a.72.72,0,0,0-.4-.12H56.78v-1l3.14-1.58.46,1.85Z"/></g></g></svg>