<svg xmlns="http://www.w3.org/2000/svg" viewBox="0 0 87.07 87.07"><defs><style>.cls-1{fill:#0b4df5;}.cls-2{fill:#fff;}</style></defs><g id="Layer_2" data-name="Layer 2"><g id="Layer_20" data-name="Layer 20"><path class="cls-1" d="M43.54,0h0A43.53,43.53,0,0,1,87.07,43.54h0A43.53,43.53,0,0,1,43.54,87.07h0A43.53,43.53,0,0,1,0,43.54H0A43.54,43.54,0,0,1,43.54,0Z"/><path class="cls-2" d="M60.81,31.57V22.83a.68.68,0,0,0-.69-.67H35.47a.68.68,0,0,0-.68.67v2h-2a.68.68,0,0,0-.69.67v.67H30a.68.68,0,0,0-.69.68v4.7h-4.1a3.4,3.4,0,0,0-3.43,3.37V60.5a3.4,3.4,0,0,0,3.43,3.36h35.6a3.4,3.4,0,0,0,3.42-3.36V34.94A3.4,3.4,0,0,0,60.81,31.57Zm2,3.37V43a3.4,3.4,0,0,0-2-.69V32.92A2,2,0,0,1,62.86,34.94ZM59.44,23.5V42.34H36.16V23.5ZM34.79,26.19V42.34H33.42V26.19Zm-2.74,1.35v14.8h-.68a3.85,3.85,0,0,0-.69.06V27.54Zm-6.84,35a2,2,0,0,1-2.06-2V34.94a2,2,0,0,1,2.06-2h4.1V43a3.33,3.33,0,0,0-1.37,2.67V60.5a2,2,0,0,1-2.05,2Zm3.4,0a3.23,3.23,0,0,0,.7-2V45.7a2,2,0,0,1,2.06-2h1.38a3.32,3.32,0,0,0-.7,2V60.5a2,2,0,0,1-2,2Zm34.25-2a2,2,0,0,1-2,2H32.72a3.29,3.29,0,0,0,.7-2V45.7a2,2,0,0,1,2-2H60.81a2,2,0,0,1,2,2Z"/><path class="cls-2" d="M61.49,57.13H53.27a.68.68,0,0,0-.68.68V60.5a.68.68,0,0,0,.68.67h8.22a.67.67,0,0,0,.68-.67V57.81A.67.67,0,0,0,61.49,57.13Zm-.68,2.69H54V58.48h6.85Z"/><path class="cls-2" d="M50.54,59.82h1.37v1.35H50.54Z"/><path class="cls-2" d="M42.32,34.26H39.58a.68.68,0,0,0-.68.68V41a.67.67,0,0,0,.68.67h2.74A.68.68,0,0,0,43,41V34.94A.69.69,0,0,0,42.32,34.26Zm-.68,6.06H40.27V35.61h1.37Z"/><path class="cls-2" d="M43.69,29.56V41a.68.68,0,0,0,.68.67h2.74A.68.68,0,0,0,47.8,41V29.56a.68.68,0,0,0-.69-.68H44.37A.68.68,0,0,0,43.69,29.56Zm1.37.67h1.37V40.32H45.06Z"/><path class="cls-2" d="M49.17,41.66h2.74a.68.68,0,0,0,.68-.67V31.57a.68.68,0,0,0-.68-.67H49.17a.68.68,0,0,0-.69.67V41A.68.68,0,0,0,49.17,41.66Zm.68-9.41h1.37v8.07H49.85Z"/><path class="cls-2" d="M54,41.66H56.7a.67.67,0,0,0,.68-.67V25.52a.67.67,0,0,0-.68-.67H54a.68.68,0,0,0-.69.67V41A.68.68,0,0,0,54,41.66Zm.68-15.47H56V40.32H54.64Z"/><path class="cls-2" d="M36.84,24.17H41v1.35H36.84Z"/><path class="cls-2" d="M42.32,24.17h4.11v1.35H42.32Z"/><path class="cls-2" d="M36.84,26.19h9.59v1.35H36.84Z"/></g></g></svg>