<?xml version="1.0" encoding="utf-8"?>
<!-- Generator: Adobe Illustrator 26.0.1, SVG Export Plug-In . SVG Version: 6.00 Build 0)  -->
<svg version="1.1" id="Layer_1" xmlns:svgjs="http://svgjs.com/svgjs"
	 xmlns="http://www.w3.org/2000/svg" xmlns:xlink="http://www.w3.org/1999/xlink" x="0px" y="0px" viewBox="0 0 512 512"
	 style="enable-background:new 0 0 512 512;" xml:space="preserve">
<style type="text/css">
	.st0{fill:#0B4DF5;}
</style>
<g>
	<path class="st0" d="M256,40c-44.1,0-80,35.9-80,80v32c0,44.1,35.9,80,80,80s80-35.9,80-80v-32C336,75.9,300.1,40,256,40z M320,152
		c0,35.3-28.7,64-64,64s-64-28.7-64-64v-32c0-35.3,28.7-64,64-64s64,28.7,64,64V152z M248,392h16v16h-16V392z M248,424h16v16h-16
		V424z M248,456h16v16h-16V456z"/>
	<path class="st0" d="M256,0C114.8,0,0,114.8,0,256s114.8,256,256,256c11,0,22.2-0.7,33-2.1l-2-15.9c-10.3,1.3-20.6,2-31,2
		c-34.1,0-66.6-7.2-96-20.1V344h-16v124.2c-17.3-9.2-33.4-20.4-48-33.5V352c0-48.5,39.5-88,88-88h11.8l52.2,74.5V376h16v-37.5
		l52.2-74.5H328c18.6,0,36.3,5.7,51.3,16.5l9.3-13C370.9,254.7,349.9,248,328,248H184c-57.3,0-104,46.7-104,104v66.9
		C40.3,376.1,16,318.9,16,256C16,123.7,123.7,16,256,16s240,107.7,240,240c0,21-2.7,41.8-8.1,61.9l15.5,4.1
		c5.7-21.4,8.6-43.7,8.6-66.1C512,114.8,397.2,0,256,0z M296.6,264L256,322l-40.6-58H296.6z"/>
	<path class="st0" d="M392,288c-61.8,0-112,50.2-112,112s50.2,112,112,112s112-50.2,112-112S453.8,288,392,288z M392,496
		c-52.9,0-96-43.1-96-96s43.1-96,96-96s96,43.1,96,96S444.9,496,392,496z"/>
	<path class="st0" d="M400,392v-56h-16v56h-56v16h56v56h16v-56h56v-16H400z"/>
</g>
</svg>
