<svg xmlns="http://www.w3.org/2000/svg" viewBox="0 0 87.07 87.07"><defs><style>.cls-1{fill:#ebf0f9;}.cls-2{fill:#405dab;}</style></defs><g id="Layer_2" data-name="Layer 2"><g id="Layer_20" data-name="Layer 20"><path class="cls-1" d="M43.54,0h0A43.53,43.53,0,0,1,87.07,43.54h0A43.53,43.53,0,0,1,43.54,87.07h0A43.53,43.53,0,0,1,0,43.54H0A43.54,43.54,0,0,1,43.54,0Z"/><path class="cls-2" d="M44.75,37.36a2.6,2.6,0,0,0,1.84-4.44l-4.43-4.43a2.63,2.63,0,0,0-3.68,0,2.61,2.61,0,0,0,0,3.68l4.43,4.43a2.56,2.56,0,0,0,1.84.76Zm-6-7a1.52,1.52,0,0,1,1.56-1.55,1.64,1.64,0,0,1,1.11.44l4.43,4.43a1.53,1.53,0,0,1,.46,1.11,1.55,1.55,0,0,1-.46,1.11,1.65,1.65,0,0,1-1.11.45,1.67,1.67,0,0,1-1.11-.45l-4.43-4.43a1.6,1.6,0,0,1-.45-1.11Z"/><path class="cls-2" d="M61.8,61.27a.52.52,0,0,0-.52.52,3.67,3.67,0,0,1-3.66,3.66H55.53a1.4,1.4,0,0,1-.66-.16L58,62.17a.53.53,0,0,0,0-.75.53.53,0,0,0-.74,0l-3.12,3.13a1.44,1.44,0,0,1-.16-.67V61.79a3.65,3.65,0,0,1,3.66-3.66h2.08a1.55,1.55,0,0,1,1.11.46,1.53,1.53,0,0,1,.46,1.11.52.52,0,0,0,.52.52.53.53,0,0,0,.52-.52,2.65,2.65,0,0,0-.77-1.85,2.69,2.69,0,0,0-1.85-.77H57.62A4.69,4.69,0,0,0,54,58.86v-6.7H56.7a2,2,0,0,0,1.42-.58,2,2,0,0,0,.59-1.42,2,2,0,0,0-2-2h-1V44.52h0a4.67,4.67,0,0,0-1.38-3.32L50,36.82a2.64,2.64,0,0,0,.43-1.68,2.67,2.67,0,0,0-.73-1.57L42.3,26.18a4.69,4.69,0,0,0-6.24-.34l-5.21-5.21a.5.5,0,0,0-.73,0,.52.52,0,0,0,0,.73l5.18,5.18-2.22,2.22-5.54-5.54a1.58,1.58,0,0,1,0-2.21,1.57,1.57,0,0,1,.92-.45.52.52,0,0,0-.13-1,2.56,2.56,0,0,0-1.82,4L25.07,25a4.81,4.81,0,0,0-1.37,3.32v2.44A4.67,4.67,0,0,0,25.07,34l1.36,1.36-.5.5a3.48,3.48,0,0,0,0,4.92,3.5,3.5,0,0,0,2.45,1h8.86A4.71,4.71,0,0,0,39,41.48a.51.51,0,0,0,.27-.67.52.52,0,0,0-.66-.3,3.66,3.66,0,0,1-1.39.27H28.4a2.4,2.4,0,0,1-1.71-.72,2.47,2.47,0,0,1-.71-1.7,2.43,2.43,0,0,1,.7-1.72l3.83-3.82,2.95-3h0l2.95-2.95a3.68,3.68,0,0,1,5.17,0L49,34.29h0a1.55,1.55,0,0,1,.46,1.11A1.53,1.53,0,0,1,49,36.51l-3,3a1.62,1.62,0,0,1-1.11.44,1.65,1.65,0,0,1-1.11-.44,2.5,2.5,0,0,0-1.48-.74,2.62,2.62,0,0,0-1.63.3.48.48,0,0,0-.25.31.52.52,0,0,0,0,.39.54.54,0,0,0,.71.21,1.66,1.66,0,0,1,1-.18,1.57,1.57,0,0,1,.88.44,2.73,2.73,0,0,0,1.58.71,2.6,2.6,0,0,0,1.67-.42l4.39,4.4h0a3.73,3.73,0,0,1,1.08,2.58v.7h-1a2,2,0,0,0-1.71,3,2,2,0,0,0,1.71,1h2.13v2.53a4.73,4.73,0,0,0-3.65-1.78h-2.1a2.62,2.62,0,0,0-1.84.77,2.69,2.69,0,0,0-.77,1.85v2.08a4.71,4.71,0,0,0,4.7,4.7h2.08a2.6,2.6,0,0,0,1.57-.57V66a.52.52,0,0,0,1,0v0a2.53,2.53,0,0,0,1.56.57h2.09a4.71,4.71,0,0,0,4.7-4.7.54.54,0,0,0-.16-.37.45.45,0,0,0-.35-.15ZM30.65,31.2v-.83a2.64,2.64,0,0,0-.76-1.84l-2.35-2.35a.52.52,0,0,0-.73.73l2.34,2.35a1.52,1.52,0,0,1,.46,1.11v1.87l-2.43,2.43-1.36-1.36h0a3.63,3.63,0,0,1-1.08-2.59V28.28a3.66,3.66,0,0,1,1.08-2.59l1.36-1.36,5.17,5.17ZM47.1,39.84l2.22-2.22,1.23,1.23-2.21,2.22Zm3.32,3.32-1.35-1.35,2.21-2.22,1.35,1.35Zm1,1-.26-.26,2.21-2.21.26.25h0a3.59,3.59,0,0,1,1.06,2.59v3.65h-1.9v-.7h0a4.74,4.74,0,0,0-1.37-3.32Zm-1.58,6a1,1,0,0,1,1-1h5.9a1,1,0,0,1,1,1,.92.92,0,0,1-.29.68,1,1,0,0,1-.68.27H50.8a1,1,0,0,1-1-1Zm3.09,9.53a1.53,1.53,0,0,1-.16.66l-3.12-3.13h0a.53.53,0,0,0-.75.75L52,61.11h0a1.44,1.44,0,0,1-.67.16H49.28a3.65,3.65,0,0,1-3.66-3.66V55.53a1.61,1.61,0,0,1,.45-1.11A1.55,1.55,0,0,1,47.18,54h2.09a3.65,3.65,0,0,1,3.66,3.66Z"/></g></g></svg>