<svg xmlns="http://www.w3.org/2000/svg" viewBox="0 0 87.07 87.07"><defs><style>.cls-1{fill:#eaeff8;}.cls-2{fill:#405da9;}</style></defs><g id="Layer_2" data-name="Layer 2"><g id="Layer_21" data-name="Layer 21"><path class="cls-1" d="M43.54,0h0A43.53,43.53,0,0,1,87.07,43.54h0A43.53,43.53,0,0,1,43.54,87.07h0A43.53,43.53,0,0,1,0,43.54H0A43.54,43.54,0,0,1,43.54,0Z"/><path class="cls-2" d="M51.12,26.29a.69.69,0,1,0,0,1.38h4.14a.69.69,0,1,0,0-1.38Z"/><path class="cls-2" d="M31.29,29.72l2.59-.65,2.59.65h0a.7.7,0,0,0,.84-.5,1,1,0,0,0,0-.17v-6.9a.69.69,0,0,0-.69-.69H31.12a.69.69,0,0,0-.69.69v6.9a.69.69,0,0,0,.69.69l.17,0Zm.52-6.88H36v5.32L34,27.69a.62.62,0,0,0-.33,0l-1.9.47Z"/><path class="cls-2" d="M62.85,61.59V43.42a2.07,2.07,0,0,0-.69-4H47a2.07,2.07,0,0,0-.69,4V61.59a2.07,2.07,0,0,0,.69,4H62.16a2.07,2.07,0,0,0,.69-4Zm-.69,2.64H47a.69.69,0,0,1,0-1.38H59.4a.69.69,0,0,0,0-1.38H47.67V43.54H58a.69.69,0,1,0,0-1.38H47a.69.69,0,1,1,0-1.38H62.16a.69.69,0,0,1,0,1.38.69.69,0,0,0-.69.69V62.16a.69.69,0,0,0,.69.69h0a.69.69,0,0,1,0,1.38Z"/><path class="cls-2" d="M28.36,21.46H22.15a2.07,2.07,0,0,0-2.07,2.07v29a2.07,2.07,0,0,0,2.07,2.07h5.52a.69.69,0,1,0,0-1.38H22.15a.69.69,0,0,1-.69-.69h0v-29a.69.69,0,0,1,.69-.69h6.21a.69.69,0,0,0,0-1.38Z"/><path class="cls-2" d="M39.4,22.84h6.89V37.33a.69.69,0,1,0,1.38,0V22.84H58a.69.69,0,0,1,.69.69h0v13.8a.69.69,0,1,0,1.38,0V23.53A2.07,2.07,0,0,0,58,21.46H39.4a.69.69,0,0,0,0,1.38Z"/><path class="cls-2" d="M54.57,47.67A4.85,4.85,0,1,0,58,49.09,4.84,4.84,0,0,0,54.57,47.67Zm0,8.28a3.45,3.45,0,1,1,2.44-1A3.46,3.46,0,0,1,54.57,56Z"/><path class="cls-2" d="M31.81,62.85h11a.69.69,0,0,0,0-1.38H32.5V56H44.22a.69.69,0,0,0,0-1.38H31.81a.69.69,0,0,1,0-1.38H44.22a.69.69,0,0,0,0-1.38H31.81a2.07,2.07,0,0,0-.69,4v5.76a2.07,2.07,0,0,0,.69,4h11a.69.69,0,0,0,0-1.38h-11a.69.69,0,0,1,0-1.38Z"/><path class="cls-2" d="M44.22,58H37.33a.69.69,0,0,0,0,1.38h6.89a.69.69,0,0,0,0-1.38Z"/><path class="cls-2" d="M31.36,33.6A.36.36,0,0,0,31,34v1.74H29.88a.36.36,0,0,0-.37.34v9a.36.36,0,0,0,.37.35H31V46.8a.36.36,0,0,0,.37.35.37.37,0,0,0,.37-.35V45.41h1.1a.35.35,0,0,0,.37-.35V36a.35.35,0,0,0-.37-.34h-1.1V34A.37.37,0,0,0,31.36,33.6Zm1.1,2.78v8.34H30.25V36.38Z"/><path class="cls-2" d="M36.52,32.21a.37.37,0,0,0-.37.35V34.3h-1.1a.35.35,0,0,0-.37.35v9a.35.35,0,0,0,.37.34h1.1v1.39a.37.37,0,0,0,.37.35.36.36,0,0,0,.37-.35V44H38a.36.36,0,0,0,.37-.34v-9A.36.36,0,0,0,38,34.3H36.89V32.56A.36.36,0,0,0,36.52,32.21ZM37.63,35v8.34H35.42V35Z"/><path class="cls-2" d="M41.69,36.38a.37.37,0,0,0-.37.35v1.74H40.21a.36.36,0,0,0-.37.34v9a.37.37,0,0,0,.37.35h1.11v1.39a.37.37,0,0,0,.74,0V48.19h1.11a.37.37,0,0,0,.37-.35v-9a.36.36,0,0,0-.37-.34H42.06V36.73A.37.37,0,0,0,41.69,36.38Zm1.11,2.78V47.5H40.58V39.16Z"/><path class="cls-2" d="M26.19,29.09a.35.35,0,0,0-.37.35v1.73H24.71a.37.37,0,0,0-.37.35v9a.37.37,0,0,0,.37.35h1.11v1.39a.35.35,0,0,0,.37.34.36.36,0,0,0,.37-.34V40.9h1.11a.36.36,0,0,0,.36-.35v-9a.36.36,0,0,0-.36-.35H26.56V29.44A.36.36,0,0,0,26.19,29.09Zm1.11,2.78V40.2H25.08V31.87Z"/></g></g></svg>