<svg xmlns="http://www.w3.org/2000/svg" viewBox="0 0 87.07 87.07"><defs><style>.cls-1{fill:#ebf0f9;}.cls-2{fill:#405dab;}</style></defs><g id="Layer_2" data-name="Layer 2"><g id="Layer_20" data-name="Layer 20"><path class="cls-1" d="M43.54,0h0A43.53,43.53,0,0,1,87.07,43.54h0A43.53,43.53,0,0,1,43.54,87.07h0A43.53,43.53,0,0,1,0,43.54H0A43.54,43.54,0,0,1,43.54,0Z"/><path class="cls-2" d="M44.45,61.13H30.65V56.21a2,2,0,0,0-2-2H23.69V22.69a2.52,2.52,0,0,1,2.51-2.51H55.25a3.77,3.77,0,0,0-1,2.51V46.74a.63.63,0,1,0,1.26,0v-20H61.2a.63.63,0,0,0,.63-.63V22.7A3.78,3.78,0,0,0,58.41,19l-.18,0h-32a3.78,3.78,0,0,0-3.78,3.78V54.81a.93.93,0,0,0,0,.24,1.1,1.1,0,0,1,.09.14l.05.06,7,7,.07.05a.6.6,0,0,0,.13.09.93.93,0,0,0,.24,0H44.45a.64.64,0,0,0,0-1.27ZM60.58,22.69v2.74h-5V22.69a2.52,2.52,0,0,1,5,0ZM29.38,56.21v4l-4.8-4.8h4a.78.78,0,0,1,.78.78Z"/><path class="cls-2" d="M54.91,54.47a3.56,3.56,0,0,0-.74,7.05,3.64,3.64,0,0,0,.74.07,3.56,3.56,0,0,0,0-7.12Zm0,5.86a3.88,3.88,0,0,1-.48,0,2.36,2.36,0,1,1,.48,0Z"/><path class="cls-2" d="M61.87,59.26a6.77,6.77,0,0,0,0-2.43l1.48-1.17a.64.64,0,0,0,.16-.82L62,52.19a.65.65,0,0,0-.78-.28l-1.74.7a7.21,7.21,0,0,0-2.11-1.23l-.27-1.84a.62.62,0,0,0-.63-.54h-3a.63.63,0,0,0-.63.54l-.28,1.85a6.88,6.88,0,0,0-2.11,1.23l-1.74-.7a.63.63,0,0,0-.78.28l-1.54,2.65a.64.64,0,0,0,.16.82l1.47,1.16a7.49,7.49,0,0,0,0,2.44l-1.47,1.16a.64.64,0,0,0-.16.82l1.53,2.65a.63.63,0,0,0,.78.28l1.74-.7a6.91,6.91,0,0,0,2.11,1.23l.27,1.85a.63.63,0,0,0,.63.54h3.05a.64.64,0,0,0,.63-.54l.27-1.85a6.68,6.68,0,0,0,2.11-1.23l1.74.7A.64.64,0,0,0,62,63.9l1.53-2.65a.64.64,0,0,0-.16-.82Zm-.72,3.51-1.59-.63a.66.66,0,0,0-.68.13,5.71,5.71,0,0,1-2.29,1.33.63.63,0,0,0-.45.52l-.25,1.7H54l-.25-1.7a.62.62,0,0,0-.45-.52A5.81,5.81,0,0,1,51,62.27a.62.62,0,0,0-.67-.13l-1.59.63-1-1.69L49.05,60a.66.66,0,0,0,.23-.64A6.27,6.27,0,0,1,49.13,58a5.54,5.54,0,0,1,.16-1.32.63.63,0,0,0-.23-.64L47.72,55l1-1.7,1.59.63A.66.66,0,0,0,51,53.8a5.88,5.88,0,0,1,2.3-1.34.61.61,0,0,0,.44-.52L54,50.25h1.94l.25,1.69a.64.64,0,0,0,.44.52,6,6,0,0,1,2.29,1.34.63.63,0,0,0,.68.12l1.59-.63,1,1.7-1.35,1.07a.65.65,0,0,0-.23.64,5.57,5.57,0,0,1,0,2.65.64.64,0,0,0,.23.64l1.35,1.07Z"/><path class="cls-2" d="M34.48,36.51a.63.63,0,0,0-1.26,0v1.78a.32.32,0,0,1-.32.33H27.69a.32.32,0,0,1-.32-.33V33.08a.32.32,0,0,1,.32-.32h3.12a.63.63,0,0,0,0-1.26H27.68a1.6,1.6,0,0,0-1.6,1.6v5.21a1.6,1.6,0,0,0,1.6,1.6h5.21a1.6,1.6,0,0,0,1.6-1.6v-1.8Z"/><path class="cls-2" d="M51.26,33h-14a.63.63,0,1,0,0,1.26h14a.63.63,0,1,0,0-1.26Z"/><path class="cls-2" d="M37.27,38.37H46a.63.63,0,0,0,0-1.26H37.27a.63.63,0,1,0,0,1.26Z"/><path class="cls-2" d="M29.2,35.23a.63.63,0,0,0-.9,0,.65.65,0,0,0,0,.9l1.29,1.29a.66.66,0,0,0,.45.18.69.69,0,0,0,.45-.18l3.33-3.33a.64.64,0,1,0-.9-.9L30,36.07Z"/><path class="cls-2" d="M51.89,44.62a.62.62,0,0,0-.63-.63h-14a.63.63,0,0,0,0,1.26h14a.63.63,0,0,0,.63-.63Z"/><path class="cls-2" d="M37.27,48.08a.63.63,0,0,0,0,1.26H48.81a.63.63,0,1,0,0-1.26Z"/><path class="cls-2" d="M32.39,42.46H28.16a2.09,2.09,0,0,0-2.09,2.09v4.24a2.09,2.09,0,0,0,2.09,2.09h4.23a2.09,2.09,0,0,0,2.09-2.09V44.55A2.09,2.09,0,0,0,32.39,42.46Zm.82,6.32a.82.82,0,0,1-.82.82H28.16a.82.82,0,0,1-.82-.82V44.54a.82.82,0,0,1,.82-.82h4.23a.82.82,0,0,1,.82.82Z"/><path class="cls-2" d="M44.49,54.47H33.19a.64.64,0,0,0,0,1.27H44.5a.63.63,0,0,0,.63-.64.64.64,0,0,0-.64-.63Z"/><path class="cls-2" d="M51.89,23.9a.63.63,0,0,0-.63-.63H26.71a.63.63,0,0,0-.63.63v3.76a.63.63,0,0,0,.63.63H51.26a.63.63,0,0,0,.63-.63ZM50.61,27H27.34V24.53H50.61Z"/></g></g></svg>