<svg xmlns="http://www.w3.org/2000/svg" viewBox="0 0 87.07 87.07"><defs><style>.cls-1{fill:#ebf0f9;}.cls-2{fill:#405dab;}</style></defs><g id="Layer_2" data-name="Layer 2"><g id="Layer_20" data-name="Layer 20"><path class="cls-1" d="M43.54,0h0A43.53,43.53,0,0,1,87.07,43.54h0A43.53,43.53,0,0,1,43.54,87.07h0A43.53,43.53,0,0,1,0,43.54H0A43.54,43.54,0,0,1,43.54,0Z"/><path class="cls-2" d="M52,25.76a.69.69,0,1,0,0,1.38h4.14a.69.69,0,0,0,0-1.38Z"/><path class="cls-2" d="M32.14,29.19l2.59-.65,2.59.65h0a.7.7,0,0,0,.84-.5.88.88,0,0,0,0-.17v-6.9a.69.69,0,0,0-.69-.69H32a.69.69,0,0,0-.69.69v6.9a.69.69,0,0,0,.69.69l.17,0Zm.52-6.88H36.8v5.32l-1.91-.47a.91.91,0,0,0-.33,0l-1.9.47Z"/><path class="cls-2" d="M63.7,61.06V42.89a2.07,2.07,0,0,0-.69-4H47.83a2.07,2.07,0,0,0-.69,4V61.06a2.07,2.07,0,0,0,.69,4H63a2.07,2.07,0,0,0,.69-4ZM63,63.7H47.83a.69.69,0,0,1,0-1.38H60.25a.69.69,0,1,0,0-1.38H48.52V43H58.87a.69.69,0,0,0,0-1.38h-11a.69.69,0,0,1,0-1.38H63a.69.69,0,0,1,0,1.38.69.69,0,0,0-.69.69V61.63a.69.69,0,0,0,.69.69h0a.69.69,0,0,1,0,1.38Z"/><path class="cls-2" d="M29.21,20.93H23A2.07,2.07,0,0,0,20.93,23V52A2.08,2.08,0,0,0,23,54.05h5.52a.69.69,0,1,0,0-1.38H23a.69.69,0,0,1-.69-.69h0V23a.69.69,0,0,1,.69-.69h6.21a.69.69,0,1,0,0-1.38Z"/><path class="cls-2" d="M40.25,22.31h6.89V36.8a.69.69,0,1,0,1.38,0V22.31H58.87a.69.69,0,0,1,.69.69h0V36.8a.69.69,0,1,0,1.38,0V23a2.07,2.07,0,0,0-2.07-2.07H40.25a.69.69,0,1,0,0,1.38Z"/><path class="cls-2" d="M55.42,47.15a4.85,4.85,0,1,0,3.41,1.42A4.82,4.82,0,0,0,55.42,47.15Zm0,8.27a3.45,3.45,0,1,1,2.44-1A3.45,3.45,0,0,1,55.42,55.42Z"/><path class="cls-2" d="M32.66,62.32h11a.69.69,0,0,0,0-1.38H33.35V55.42H45.07a.69.69,0,1,0,0-1.37H32.66a.69.69,0,0,1,0-1.38H45.07a.69.69,0,1,0,0-1.38H32.66a2.07,2.07,0,0,0-.69,4v5.75a2.07,2.07,0,0,0,.69,4h11a.69.69,0,0,0,0-1.38h-11a.69.69,0,0,1,0-1.38Z"/><path class="cls-2" d="M45.07,57.49H38.18a.69.69,0,0,0,0,1.38h6.89a.69.69,0,0,0,0-1.38Z"/></g></g></svg>