<svg xmlns="http://www.w3.org/2000/svg" viewBox="0 0 87.07 87.07"><defs><style>.cls-1{fill:#eaeff8;}.cls-2{fill:#405da9;fill-rule:evenodd;}</style></defs><g id="Layer_2" data-name="Layer 2"><g id="Layer_21" data-name="Layer 21"><path class="cls-1" d="M43.54,0h0A43.53,43.53,0,0,1,87.07,43.54h0A43.53,43.53,0,0,1,43.54,87.07h0A43.53,43.53,0,0,1,0,43.54H0A43.54,43.54,0,0,1,43.54,0Z"/><g id="Layer_1-2" data-name="Layer_1"><g id="_2586084107312" data-name=" 2586084107312"><g id="_207420944" data-name=" 207420944"><path class="cls-2" d="M68.79,65.3H20a.58.58,0,0,1-.59-.58V61.4a.58.58,0,0,1,.59-.59H68.79a.59.59,0,0,1,.59.59v3.32a.59.59,0,0,1-.59.58ZM20.56,64.13H68.2V62H20.56Z"/></g><g id="_207422000" data-name=" 207422000"><path class="cls-2" d="M48.88,62H21.34a.58.58,0,0,1-.59-.58V46.65a.58.58,0,0,1,.59-.58H48.88a.58.58,0,0,1,.58.58V61.4a.58.58,0,0,1-.58.58Zm-27-1.17H48.29V47.24H21.92Z"/></g><g id="_207421976" data-name=" 207421976"><path class="cls-2" d="M30.29,62H25.63a.58.58,0,0,1-.58-.58V55a.58.58,0,0,1,.58-.59h4.66a.59.59,0,0,1,.59.59v6.4a.59.59,0,0,1-.59.58Zm-4.07-1.17H29.7V55.58H26.22Z"/></g><g id="_207420656" data-name=" 207420656"><path class="cls-2" d="M36.87,47.24H31.26a.59.59,0,0,1-.43-.19.56.56,0,0,1-.15-.44l.89-11.77a.58.58,0,0,1,.58-.54H36a.59.59,0,0,1,.59.54l.89,11.72s0,.06,0,.09a.59.59,0,0,1-.59.59Zm-5-1.17h4.35l-.81-10.6H32.7Z"/></g><g id="_207422216" data-name=" 207422216"><path class="cls-2" d="M36.36,40.63h-4.6a.59.59,0,0,1-.58-.59.58.58,0,0,1,.58-.58h4.6A.58.58,0,0,1,37,40,.59.59,0,0,1,36.36,40.63Zm-.2-2.69H32a.59.59,0,1,1,0-1.17h4.19a.59.59,0,1,1,0,1.17Z"/></g><g id="_207422144" data-name=" 207422144"><path class="cls-2" d="M37.75,53.5H32.92a.59.59,0,0,1-.59-.59V49.65a.59.59,0,0,1,.59-.59h4.83a.59.59,0,0,1,.58.59v3.26A.59.59,0,0,1,37.75,53.5ZM33.5,52.32h3.66V50.24H33.5Z"/></g><g id="_207422264" data-name=" 207422264"><path class="cls-2" d="M45.51,53.5H40.67a.59.59,0,0,1-.58-.59V49.65a.59.59,0,0,1,.58-.59h4.84a.59.59,0,0,1,.58.59v3.26A.59.59,0,0,1,45.51,53.5Zm-4.25-1.18h3.66V50.24H41.26Z"/></g><g id="_207422312" data-name=" 207422312"><path class="cls-2" d="M37.75,58.52H32.92a.59.59,0,0,1-.59-.59V54.67a.59.59,0,0,1,.59-.59h4.83a.59.59,0,0,1,.58.59v3.26A.59.59,0,0,1,37.75,58.52ZM33.5,57.34h3.66V55.26H33.5Z"/></g><g id="_207422576" data-name=" 207422576"><path class="cls-2" d="M45.51,58.52H40.67a.59.59,0,0,1-.58-.59V54.67a.59.59,0,0,1,.58-.59h4.84a.59.59,0,0,1,.58.59v3.26A.59.59,0,0,1,45.51,58.52Zm-4.25-1.18h3.66V55.26H41.26Z"/></g><g id="_207422648" data-name=" 207422648"><path class="cls-2" d="M41.12,47.24H41a.59.59,0,0,1-.48-.67l1.19-7.19V34.06a.59.59,0,0,1,.59-.59H50a.59.59,0,0,1,.58.59v5.31l1.15,6.92a.6.6,0,0,1-.48.68.6.6,0,0,1-.68-.49l-1.15-7a.28.28,0,0,1,0-.09V34.64H42.9v4.78a.28.28,0,0,1,0,.09L41.7,46.75a.6.6,0,0,1-.58.49Z"/></g><g id="_207422720" data-name=" 207422720"><path class="cls-2" d="M67.43,61.9a.59.59,0,0,1-.57-.45L65.24,55,61.67,41.12a.77.77,0,0,1,0-.15V37.05H53.12V41a.39.39,0,0,1,0,.15L49.44,55.31A.58.58,0,1,1,48.31,55L52,40.9V36.46a.58.58,0,0,1,.59-.58h9.7a.58.58,0,0,1,.58.58V40.9l3.56,13.8L68,61.17a.59.59,0,0,1-.43.71Z"/></g><g id="_207422792" data-name=" 207422792"><path class="cls-2" d="M57.22,58l-.15,0a.59.59,0,0,1-.44-.57v-4.3H54.1a.59.59,0,0,1-.51-.88l4.16-7a.59.59,0,0,1,.66-.27.6.6,0,0,1,.43.57v4.32h2.33a.6.6,0,0,1,.51.29.62.62,0,0,1,0,.59l-4,6.94A.58.58,0,0,1,57.22,58ZM55.13,52h2.09a.59.59,0,0,1,.59.59v2.67l2.35-4.15H58.25a.58.58,0,0,1-.58-.58V47.72Z"/></g><g id="_207422864" data-name=" 207422864"><path class="cls-2" d="M31.66,32.46a5.53,5.53,0,1,1,4.53-8.7,4.57,4.57,0,0,1,7,.79,3.68,3.68,0,0,1,1.47-.3,3.63,3.63,0,1,1,0,7.26,3.6,3.6,0,0,1-2.38-.89,4.65,4.65,0,0,1-2.9,1,4.6,4.6,0,0,1-3.28-1.37A5.51,5.51,0,0,1,31.66,32.46Zm0-9.89A4.36,4.36,0,1,0,35.49,29a.6.6,0,0,1,1,0,3.41,3.41,0,0,0,5.33.44.6.6,0,0,1,.44-.19.63.63,0,0,1,.44.22,2.45,2.45,0,1,0,.54-3.6.62.62,0,0,1-.48.08.6.6,0,0,1-.37-.31,3.41,3.41,0,0,0-5.83-.51.57.57,0,0,1-.52.24.59.59,0,0,1-.48-.32,4.34,4.34,0,0,0-3.91-2.44Z"/></g><g id="_207422936" data-name=" 207422936"><path class="cls-2" d="M58.09,31.52A3.76,3.76,0,0,1,54.56,29a3.84,3.84,0,0,1-1.21.2,3.74,3.74,0,0,1-.22-7.47,3.74,3.74,0,0,1,5.4-.64,3.74,3.74,0,0,1,3.09,1.24,3.74,3.74,0,0,1-.12,6.94,3.73,3.73,0,0,1-3.41,2.22ZM55,27.61a.58.58,0,0,1,.26.06.6.6,0,0,1,.32.45,2.57,2.57,0,0,0,5,.52.58.58,0,0,1,.39-.37,2.57,2.57,0,0,0,.17-4.87.64.64,0,0,1-.25-.18,2.54,2.54,0,0,0-2-.94,2.73,2.73,0,0,0-.41,0,.58.58,0,0,1-.5-.16,2.57,2.57,0,0,0-4,.5.57.57,0,0,1-.51.28h-.08a2.57,2.57,0,0,0,0,5.14,2.63,2.63,0,0,0,1.31-.36.55.55,0,0,1,.3-.09Z"/></g><g id="_207423032" data-name=" 207423032"><path class="cls-2" d="M27.79,33.58H24.44a.59.59,0,1,1,0-1.17h3.35a.59.59,0,1,1,0,1.17Z"/></g><g id="_207423104" data-name=" 207423104"><path class="cls-2" d="M27.79,40.78H24.44a.59.59,0,1,1,0-1.17h3.35a.59.59,0,1,1,0,1.17Z"/></g><g id="_207423176" data-name=" 207423176"><path class="cls-2" d="M25.11,37.18H21.76a.59.59,0,1,1,0-1.17h3.35a.59.59,0,0,1,0,1.17Z"/></g><g id="_207423008" data-name=" 207423008"><path class="cls-2" d="M50.26,41.63H42.05a.58.58,0,0,1-.59-.58.59.59,0,0,1,.59-.59h8.21a.59.59,0,0,1,.58.59A.58.58,0,0,1,50.26,41.63ZM50,37.94H42.31a.59.59,0,0,1,0-1.17H50a.59.59,0,0,1,0,1.17Z"/></g></g></g></g></g></svg>