<svg xmlns="http://www.w3.org/2000/svg" viewBox="0 0 87.07 87.07"><defs><style>.cls-1{fill:#ebf0f9;}.cls-2{fill:#405dab;}</style></defs><g id="Layer_2" data-name="Layer 2"><g id="Layer_20" data-name="Layer 20"><path class="cls-1" d="M43.54,0h0A43.53,43.53,0,0,1,87.07,43.54h0A43.53,43.53,0,0,1,43.54,87.07h0A43.53,43.53,0,0,1,0,43.54H0A43.54,43.54,0,0,1,43.54,0Z"/><path class="cls-2" d="M54.94,47.44V48.7H53.86l-2.18-2.18a7.27,7.27,0,0,0-10.26,0l0,0h-2a8,8,0,0,0-5.5,2.16H32.12V47.44a.79.79,0,0,0-.77-.77H20.71v1.52H30.6V63.4H20.71v1.52H31.36a.75.75,0,0,0,.76-.76v-1h1.75l2.47,2.47h0a2.25,2.25,0,0,0,2,.64A2.29,2.29,0,0,0,40,64.94l.63.64a2.27,2.27,0,0,0,3.67-.64l.63.64h0a2.26,2.26,0,0,0,2,.64,2.29,2.29,0,0,0,1.67-1.28l.64.64h0a2.29,2.29,0,0,0,1.61.67A2.29,2.29,0,0,0,53.15,64s0-.08,0-.12l.73-.74H55v1a.79.79,0,0,0,.22.54.76.76,0,0,0,.54.23H66.36V63.39h-9.9V48.18h9.89V46.67H55.69a.76.76,0,0,0-.75.77ZM51.39,64.51a.8.8,0,0,1-1.08,0l-2.15-2.15L46,60.21l-1.07,1.08,2.15,2.16h0a.75.75,0,0,1,0,1.07.78.78,0,0,1-1.08,0l-2.15-2.14-2.15-2.16L40.63,61.3l2.15,2.16a.75.75,0,0,1,0,1.07.76.76,0,0,1-1.08,0l-3.76-3.76-1.08,1.08,1.62,1.61h0a.78.78,0,0,1,0,1.08.76.76,0,0,1-1.08,0l-2.69-2.68a.74.74,0,0,0-.53-.23H32.11V50.25h2.07a.72.72,0,0,0,.53-.23,6.68,6.68,0,0,1,4.66-1.93h.5l-5.16,5.15h0a.82.82,0,0,0-.22.54.77.77,0,0,0,.22.54A5.82,5.82,0,0,0,38,56a5.76,5.76,0,0,0,3.61-.71l1-.55,8.77,8.77a.72.72,0,0,1,0,1.05Zm2.16-2.91a.75.75,0,0,0-.54.22l-.54.54L44,53.87l1.37-.78.13.13a3.8,3.8,0,0,0,5.37,0l-1.08-1.08a2.29,2.29,0,0,1-1.61.64,2.38,2.38,0,0,1-1.62-.64L46,51.6h0a.76.76,0,0,0-.91-.12L40.87,53.9a4.19,4.19,0,0,1-2.27.54,4.12,4.12,0,0,1-2.22-.74l6.12-6.11a5.76,5.76,0,0,1,4-1.68,5.7,5.7,0,0,1,4.05,1.68L53,50h0a.78.78,0,0,0,.54.23h1.39V61.6Z"/><path class="cls-2" d="M58,60.36H59.5v1.52H58Z"/><path class="cls-2" d="M27.56,60.36h1.52v1.52H27.56Z"/><path class="cls-2" d="M26.8,23.86h1.52v1.52H26.8Z"/><path class="cls-2" d="M29.84,23.86h1.52v1.52H29.84Z"/><path class="cls-2" d="M32.88,23.86H34.4v1.52H32.88Z"/><path class="cls-2" d="M32.12,45.15V35.27a.75.75,0,0,0-.76-.76h-.77V29.94H29.07v4.57h-.75a.76.76,0,0,0-.77.76v9.89h1.52V36h1.52v9.12h1.53Z"/><path class="cls-2" d="M39,43.63V38.3a.71.71,0,0,0-.22-.53.76.76,0,0,0-.54-.23h-.76V29.93H35.92v7.62h-.76a.77.77,0,0,0-.77.76v6.85h1.52V39.08h1.53v4.55Z"/><path class="cls-2" d="M45.81,42.88V36a.79.79,0,0,0-.22-.54.76.76,0,0,0-.54-.23h-.77V29.93H42.76v5.33H42a.77.77,0,0,0-.77.77v7.6h1.52V36.78h1.52v6.09h1.54Z"/><path class="cls-2" d="M52.65,43.63V33.75a.79.79,0,0,0-.22-.54.76.76,0,0,0-.54-.23h-.77v-3H49.61v3h-.76a.77.77,0,0,0-.77.77v9.13h1.53V34.51h1.52v9.12Z"/><path class="cls-2" d="M59.5,45.15V39.07a.79.79,0,0,0-.22-.54.76.76,0,0,0-.54-.23H58V29.93H56.45V38.3h-.76a.77.77,0,0,0-.76.77v6.08h1.52V39.82H58v5.33Z"/><path class="cls-2" d="M63.3,45.15V23.86a3.06,3.06,0,0,0-3-3.05H26.79a3,3,0,0,0-3.05,3.05V45.15h1.54V28.42h36.5V45.15Zm-38-18.25v-3a1.52,1.52,0,0,1,.44-1.08,1.5,1.5,0,0,1,1.08-.44H60.26a1.52,1.52,0,0,1,1.08.44,1.55,1.55,0,0,1,.44,1.08v3Z"/></g></g></svg>