<svg xmlns="http://www.w3.org/2000/svg" viewBox="0 0 87.07 87.07"><defs><style>.cls-1{fill:#eaeff8;}.cls-2{fill:#405da9;}</style></defs><g id="Layer_2" data-name="Layer 2"><g id="Layer_21" data-name="Layer 21"><path class="cls-1" d="M43.54,0h0A43.53,43.53,0,0,1,87.07,43.54h0A43.53,43.53,0,0,1,43.54,87.07h0A43.53,43.53,0,0,1,0,43.54H0A43.54,43.54,0,0,1,43.54,0Z"/><path class="cls-2" d="M61.57,30.87a6,6,0,0,1,.29,1.83,5.77,5.77,0,0,1-5.77,5.77,5.69,5.69,0,0,1-3.63-1.29h.3a.65.65,0,1,0,0-1.29H51a.65.65,0,0,0-.64.65v1.8a.65.65,0,1,0,1.29,0v-.2a7.06,7.06,0,0,0,11.19-7.68.65.65,0,0,0-.82-.41.64.64,0,0,0-.4.82ZM50.21,35.34a.64.64,0,0,0,.41-.81,5.66,5.66,0,0,1-.3-1.83,5.77,5.77,0,0,1,9.41-4.48h-.31a.65.65,0,0,0-.64.65.64.64,0,0,0,.64.64h1.81a.65.65,0,0,0,.65-.64V27.06a.65.65,0,0,0-.65-.64.64.64,0,0,0-.64.64v.21a7.06,7.06,0,0,0-11.2,7.67.64.64,0,0,0,.82.4ZM66.46,56a.64.64,0,0,0-.65-.64,7.76,7.76,0,0,0-3.84.92,7.29,7.29,0,0,1-1.36.55l0-.93c0-.86,0-1.73.05-2.59h.19A1.25,1.25,0,0,0,62.07,52v-4a1.25,1.25,0,0,0-1.25-1.25h0V43.7A8.69,8.69,0,0,0,60.62,42,10.35,10.35,0,1,0,45.94,34.8H42.55v0a1.25,1.25,0,0,0-1.25-1.25h-3A1.25,1.25,0,0,0,37,34.76v0H23.71V23a.65.65,0,1,0-1.29,0V65.73a.65.65,0,0,0,1.29,0V63.39a6.51,6.51,0,0,1,2.64.77,7.76,7.76,0,0,0,3.84.92A7.76,7.76,0,0,0,34,64.16a7.14,7.14,0,0,1,6.57,0,8.47,8.47,0,0,0,7.68,0,7.12,7.12,0,0,1,6.56,0,8.49,8.49,0,0,0,7.69,0,6.49,6.49,0,0,1,3.28-.8.64.64,0,0,0,.65-.64.65.65,0,0,0-.65-.65A7.75,7.75,0,0,0,62,63a7.22,7.22,0,0,1-6.57,0,8.39,8.39,0,0,0-7.68,0,7.2,7.2,0,0,1-6.56,0,8.41,8.41,0,0,0-7.69,0,6.5,6.5,0,0,1-3.28.79A6.5,6.5,0,0,1,26.91,63a7.8,7.8,0,0,0-3.2-.91V56.62a6.51,6.51,0,0,1,2.64.77,7.75,7.75,0,0,0,3.84.93A7.75,7.75,0,0,0,34,57.39a7.22,7.22,0,0,1,6.57,0,8.39,8.39,0,0,0,7.68,0,7.2,7.2,0,0,1,6.56,0,7.83,7.83,0,0,0,3.85.93,9.48,9.48,0,0,0,3.84-.93,6.5,6.5,0,0,1,3.28-.79A.65.65,0,0,0,66.46,56ZM56.09,23.63A9.08,9.08,0,1,1,47,32.7,9.09,9.09,0,0,1,56.09,23.63ZM42.55,36.09H46.3a10.38,10.38,0,0,0,9.79,7,10.08,10.08,0,0,0,3.31-.55,7.81,7.81,0,0,1,.09,1.18v3.11h-8.8v-2a1.25,1.25,0,0,0-1.25-1.24H42.55Zm-18.84,0H37v2.6a.65.65,0,0,0,1.29,0V34.8h3V44.9h-3V41.7a.65.65,0,1,0-1.29,0v1.91H23.71Zm24,20.14a7.12,7.12,0,0,1-6.56,0,8.49,8.49,0,0,0-7.69,0,6.49,6.49,0,0,1-3.28.8,6.49,6.49,0,0,1-3.28-.8,7.8,7.8,0,0,0-3.2-.91V44.9H37v0a1.25,1.25,0,0,0,1.25,1.25h3a1.25,1.25,0,0,0,1.25-1.25v0H49.4v1.91h0a1.25,1.25,0,0,0-1.24,1.25v4a1.25,1.25,0,0,0,1.24,1.24h.19c0,.75.06,1.5.05,2.26a8.32,8.32,0,0,0-1.87.71ZM60,52h-3.5a.65.65,0,0,0,0,1.29h2.83c0,.87-.06,1.74-.05,2.61,0,.37,0,.75,0,1.13a6.4,6.4,0,0,1-.64,0,6.5,6.5,0,0,1-3.29-.8,7.76,7.76,0,0,0-3.84-.92c-.24,0-.46,0-.67,0,0-.69,0-1.38,0-2.07H53.5a.65.65,0,1,0,0-1.29H49.4V48.1H60.78V52Zm3.3,7.66a.65.65,0,1,1-.65-.65A.65.65,0,0,1,63.31,59.63Zm-11.15.42a.65.65,0,1,1-.64-.64A.64.64,0,0,1,52.16,60.05Zm-10.41.68a.65.65,0,1,1-.65-.64A.65.65,0,0,1,41.75,60.73ZM29,60.47a.65.65,0,1,1-.64-.64A.64.64,0,0,1,29,60.47Z"/></g></g></svg>