<svg xmlns="http://www.w3.org/2000/svg" viewBox="0 0 70 70"><defs><style>.cls-1{fill:#0b4df5;}</style></defs><g id="Layer_21" data-name="Layer 21"><g id="_13-Building" data-name=" 13-Building"><path class="cls-1" d="M35,.14A27.93,27.93,0,0,0,7.11,28c0,21.26,26.09,40.78,27.2,41.6a1.17,1.17,0,0,0,1.38,0c1.11-.82,27.2-20.34,27.2-41.6A27.93,27.93,0,0,0,35,.14Zm0,67.09C30.85,64,9.44,46.25,9.44,28a25.56,25.56,0,0,1,51.12,0C60.56,46.25,39.15,64,35,67.23ZM35,6A22.08,22.08,0,1,0,57.08,28,22.09,22.09,0,0,0,35,6Zm0,41.83A19.75,19.75,0,1,1,54.75,28,19.75,19.75,0,0,1,35,47.78ZM46.62,15.25H32.68a1.16,1.16,0,0,0-1.17,1.16v4.65H23.38a1.16,1.16,0,0,0-1.16,1.16V39.65a1.16,1.16,0,0,0,1.16,1.16H46.62a1.16,1.16,0,0,0,1.16-1.16h0V16.41A1.16,1.16,0,0,0,46.62,15.25ZM24.54,23.38h7V38.49h-7ZM40.81,38.49H38.49V33.84h2.32Zm4.65,0H43.13V32.68A1.16,1.16,0,0,0,42,31.51H37.32a1.16,1.16,0,0,0-1.16,1.17v5.81H33.84V17.57H45.46ZM40.81,22.22V21.06a1.16,1.16,0,1,1,2.32,0v1.16a1.16,1.16,0,0,1-2.32,0Zm-4.65,0V21.06a1.17,1.17,0,1,1,2.33,0v1.16a1.17,1.17,0,0,1-2.33,0ZM40.81,28V26.87a1.16,1.16,0,1,1,2.32,0V28a1.16,1.16,0,0,1-2.32,0Zm-4.65,0V26.87a1.17,1.17,0,1,1,2.33,0V28a1.17,1.17,0,0,1-2.33,0Zm-7-1.16V28a1.16,1.16,0,0,1-2.32,0V26.87a1.16,1.16,0,1,1,2.32,0Zm0,5.81v1.16a1.16,1.16,0,1,1-2.32,0V32.68a1.16,1.16,0,1,1,2.32,0Z"/></g></g></svg>