<?xml version="1.0" encoding="utf-8"?>
<!-- Generator: Adobe Illustrator 26.0.1, SVG Export Plug-In . SVG Version: 6.00 Build 0)  -->
<svg version="1.1" id="Layer_1" xmlns="http://www.w3.org/2000/svg" xmlns:xlink="http://www.w3.org/1999/xlink" x="0px" y="0px"
	 viewBox="0 0 512 512" style="enable-background:new 0 0 512 512;" xml:space="preserve">
<style type="text/css">
	.st0{fill:#0B4DF5;}
</style>
<path class="st0" d="M69.1,365.8l-2.9,88c-0.3,12.9,10,23.7,22.9,24c6.4,0.1,12.6-2.3,17.1-6.9c4.4-4.6,6.7-10.8,6.5-17.1l-2.9-88.6
	c19.8-20.8,34.3-46.1,42.2-73.8c10.2-37.9,12.5-72.5,6.1-90.2c-1.5-4.2-6.1-6.3-10.2-4.8c-0.9,0.3-1.7,0.8-2.4,1.4
	c-13.8,11.6-28.2,40.6-38.3,76.1l-1.2-49.9c5.8-13.1,10.3-26.7,13.6-40.6c6.2-24.6,14.1-66.5-2.6-70.7
	c-11.8-2.9-21.8,17.1-28.7,37.8c-2.5-5.1-7.9-8.3-13.6-8C56.5,144,59.2,184,60.4,195.9c1,11.2,3.4,22.2,7.1,32.8
	c1.3,4,3.3,7.8,5.8,11.3l-1.8,52.8v-0.4c-2.1-5.7-4.2-11.4-6.3-17.4c-13.9-38.5-32-69.5-48-81c-2.2-1.6-4.9-2-7.4-1
	c-2.5,0.9-4.5,3-5.1,5.6c-4.6,18.6,1.3,54.2,15.2,92.8C30.4,319.6,47.2,345,69.1,365.8L69.1,365.8z M115.4,304.4
	c1.9-6.9,4-14,5.9-21.3c5.2-21.2,13.5-41.6,24.5-60.4c0.1,21.8-3,43.6-9,64.6c-6.3,21.9-17.3,42.3-32,59.8
	C107.5,332.6,111.1,318.4,115.4,304.4z M110.9,136.4c-0.8,14.5-3.1,28.8-6.9,42.8c-1.3,5.3-2.7,10.3-4.2,15.2c0-0.8,0-1.7,0-2.6
	c0-3.4-1.1-9.3-2.4-16c3.3-13.4,7.8-26.5,13.5-39.1V136.4z M97.1,454.2c0.1,2-0.7,4-2.1,5.4c-2.9,3-7.7,3-10.6,0.1
	c-1.5-1.5-2.3-3.5-2.2-5.5l0.5-13.1c2.7-6.3,7.4-11.4,13.4-14.6L97.1,454.2z M86.1,336.5l3-91.5l1.4-0.7l2.4,82.3
	c-4.4,17.8-6.4,32-2.8,42.3c0.8,2,2.4,3.5,4.3,4.3l1.6,36.3c-4.3,1.3-8.4,3.3-12.1,6L86.1,336.5z M76.8,162.8
	c3.7,9.9,6,20.2,6.9,30.7c1.3,10.5,1.1,21-0.5,31.4c-3.7-9.9-6-20.2-6.9-30.7C75.1,183.8,75.2,173.2,76.8,162.8z M49.9,280.5
	l6.5,17.5c5.3,14.3,10.3,27.9,13.7,39.4v6.2c-15.1-16.9-26.9-36.5-34.9-57.7c-8.2-21.3-13.4-43.7-15.5-66.5
	C32.5,238.3,42.7,258.8,49.9,280.5z"/>
<path class="st0" d="M268.5,201.3c-1.6-4.1-6.2-6.2-10.3-4.7c-0.8,0.3-1.5,0.7-2.2,1.2c-13.7,11.6-28.2,40.6-38.2,76.1L216,224
	c5.7-13.1,10.3-26.7,13.6-40.6c6.2-24.6,14.1-66.5-2.6-70.7c-11.8-2.9-21.8,17.1-28.8,37.8c-2.5-5.1-7.9-8.3-13.6-8
	c-18.1,1.8-15.4,41.8-14.2,54.1c1,11.2,3.4,22.2,7,32.8c1.4,3.8,3.4,7.4,5.8,10.7L176,453.7c0,12.9,10.5,23.4,23.4,23.4
	s23.4-10.5,23.4-23.4l-3-88.6c19.8-20.8,34.3-46.1,42.2-73.7C272.6,253.5,274.9,219,268.5,201.3L268.5,201.3z M199.2,244.8l1.4-0.7
	l2.3,82.4c-4.3,17.7-6.4,32-2.7,42.2c0.8,1.9,2.3,3.5,4.2,4.3l1.3,36.8c-4.4,1.6-8.6,3.9-12.2,6.9L199.2,244.8z M186.9,162.8
	c3.8,9.9,6.1,20.2,6.9,30.7c1.3,10.5,1.1,21-0.5,31.4c-3.7-9.9-6-20.2-6.8-30.7C185.2,183.8,185.3,173.2,186.9,162.8z M205.1,459.7
	c-3,2.7-7.7,2.7-10.7,0c-1.4-1.4-2.2-3.4-2.1-5.4v-8.5c2.2-7.6,7.1-14.2,13.8-18.6l0.9,27C207.1,456.2,206.5,458.2,205.1,459.7z
	 M209.8,194.4c0-0.8,0-1.7,0-2.6c-0.4-3.4-1.1-9.3-2.3-16c3.3-13.6,7.8-26.8,13.7-39.4c-0.8,14.4-3.2,28.6-6.9,42.5
	C212.8,184.5,211.4,189.5,209.8,194.4z M247,287.3c-6.3,21.9-17.3,42.3-32,59.8c2.7-14.4,6.2-28.6,10.5-42.6c2-6.9,4-14,5.9-21.3
	c5.2-21.2,13.5-41.6,24.6-60.4C256.1,244.6,253.1,266.3,247,287.3L247,287.3z"/>
<path class="st0" d="M376,200c39.3-1,71-32.7,72-72c0-17.9-6.5-65.4-66.7-118c-3-2.7-7.5-2.7-10.6,0C310.5,62.6,304,110.1,304,128
	C305,167.3,336.7,199,376,200z M376,26.7c50.4,46.4,56,86.1,56,101.3c-1.1,30.4-25.6,54.9-56,56c-30.4-1.1-54.9-25.6-56-56
	C320,112.8,325.6,73.1,376,26.7z"/>
<path class="st0" d="M416,112h-16c0,29.2-10.8,40-40,40v16C398.2,168,416,150.2,416,112z"/>
<path class="st0" d="M480,384h-3.2c2.1-5.1,3.2-10.5,3.2-16c0-17.9-10.6-32-24-32h-19.2c2.1-5.1,3.2-10.5,3.2-16
	c0-17.9-10.6-32-24-32h-80c-13.4,0-24,14.1-24,32c0,5.5,1.1,10.9,3.2,16H312c-13.4,0-24,14.1-24,32c0,5.5,1.1,10.9,3.2,16H272
	c-13.4,0-24,14.1-24,32s10.6,32,24,32h208c13.4,0,24-14.1,24-32S493.4,384,480,384z M272,432c-3.3,0-8-6.2-8-16s4.7-16,8-16
	s8,6.2,8,16S275.3,432,272,432z M456,352c3.2,0,8,6.4,8,16s-4.8,16-8,16H332.8c4.3-10.2,4.3-21.8,0-32H456z M356.8,304H416
	c3.2,0,8,6.4,8,16s-4.8,16-8,16h-59.2C361.1,325.8,361.1,314.2,356.8,304z M336,304c3.3,0,8,6.2,8,16s-4.7,16-8,16s-8-6.2-8-16
	S332.7,304,336,304z M312,352c3.3,0,8,6.2,8,16s-4.7,16-8,16s-8-6.2-8-16S308.7,352,312,352z M480,432H292.8c4.3-10.2,4.3-21.8,0-32
	H480c3.2,0,8,6.4,8,16S483.2,432,480,432z"/>
</svg>
