<?xml version="1.0" encoding="utf-8"?>
<!-- Generator: Adobe Illustrator 26.0.1, SVG Export Plug-In . SVG Version: 6.00 Build 0)  -->
<svg version="1.1" id="Expanded" xmlns="http://www.w3.org/2000/svg" xmlns:xlink="http://www.w3.org/1999/xlink" x="0px" y="0px"
	 viewBox="0 0 512 512" style="enable-background:new 0 0 512 512;" xml:space="preserve">
<style type="text/css">
	.st0{fill:#0B4DF5;}
</style>
<path class="st0" d="M72.5,504.7c-4,0-7.3-3.3-7.3-7.3c0-0.5,0.1-1.1,0.2-1.6c12.1-54.1,29-74.1,43.8-91.8
	c13-13.9,22.7-30.6,28.2-48.8c13.3-42.6-22.2-67-45.6-83.2c-5.1-3.2-10-6.9-14.5-11c-35.7-36.8-51.8-82.1-45.2-127.6
	C43.4,53.3,117.4-2.5,197.5,8.7c44,6.2,82.8,32,105.5,70.2c1.6,2.7,2.9,5.6,4,8.5l4.9,13.7c2.5,7,7.3,13.1,13.6,17.1l38.1,24.2
	c3.4,2.2,4.4,6.7,2.2,10.1c-0.3,0.5-0.8,1-1.2,1.5l-21.5,19.7l15.3,13.3c2.5,2.2,3.2,5.8,1.7,8.8l-3.7,7.3l7,1.4
	c4,0.8,6.5,4.7,5.7,8.6c-0.1,0.5-0.2,1-0.4,1.4c-2.4,5.4-4.1,11.1-4.9,16.9c0.6,0.7,1.7,1.6,2.5,2.5c5.3,5.1,14.2,13.5,12.2,25.7
	c-1.3,7.8-11.2,14.3-33.4,28.3c-18,11.3-42.6,26.9-47.5,37.9c-9.8,25.4-9.5,53.6,0.9,78.8c3.3,6.1,7.2,11.9,11.6,17.3
	c18.1,21,29,47.2,31.1,74.8c0.4,4-2.5,7.6-6.5,8c-4,0.4-7.6-2.5-8-6.5c0-0.1,0-0.1,0-0.2c-1.9-24.9-11.7-48.5-28.1-67.3
	c-5.1-6.2-9.5-12.8-13.2-19.9c-12.3-29.1-12.7-61.8-1-91.1c6.7-15.1,31.3-30.6,53-44.3c9.5-5.4,18.5-11.7,26.8-18.9
	c0.3-3.9-3.3-7.7-7.9-12.1c-1.8-1.6-3.5-3.4-4.9-5.3c-3-4.3-2.7-11.7,0.7-22.1l-0.1,0c-7.2-1.5-11.9-8.5-10.5-15.8
	c0.2-1.2,0.6-2.3,1.2-3.4l1.8-3.7l-17.2-15c-3-2.7-3.4-7.3-0.7-10.3c0.2-0.2,0.4-0.4,0.6-0.6l20.5-18.8l-30-19.1
	c-9.1-5.8-15.9-14.4-19.6-24.5l-4.9-13.7c-0.7-2.1-1.6-4.1-2.8-6C253.2,23.8,172.4,3.2,109.8,40.4c-34.4,20.4-57.6,55.4-63.2,95
	c-7.6,52.4,18.2,91.6,41.2,115.3c3.8,3.4,7.9,6.4,12.2,9.2c23.7,16.3,67.9,46.6,51.3,99.6c-6.2,20.1-16.8,38.5-31,53.9
	C106,430.6,91,448.4,79.7,499C78.9,502.3,75.9,504.7,72.5,504.7L72.5,504.7z"/>
<path class="st0" d="M186.2,202c-24.5,0-70.7-4.9-91.4-39.5c-12.5-21-5.6-48.1,15.3-60.6c10-5.9,21.9-7.7,33.1-5
	c2.9-11.2,10.2-20.8,20.1-26.7c21-12.5,48.1-5.6,60.7,15.4c28.2,47.3-15.1,110.1-16.9,112.7c-1.2,1.7-3.1,2.8-5.2,3.1
	C196.7,201.8,191.5,202.1,186.2,202z M132.8,110.2c-16.4,0-29.6,13.3-29.6,29.7c0,5.3,1.5,10.5,4.2,15.1c20.4,34.3,75.5,33,89.6,32
	c7.5-12,34.9-59.9,14.5-94.1c-8.4-14-26.5-18.7-40.6-10.3c-8.6,5.1-14.1,14.3-14.4,24.4c-0.2,4-3.6,7.2-7.6,7c-1,0-2-0.3-3-0.8
	C141.8,111.3,137.3,110.2,132.8,110.2L132.8,110.2z"/>
<path class="st0" d="M237.8,450.5c-0.9,0-1.8-0.2-2.7-0.5c-3.8-1.5-5.6-5.7-4.2-9.5c0,0,0,0,0,0c18-46.3-10.2-95.7-30.8-131.7
	c-10.4-18.2-18.6-32.5-20.3-44.2c-3.6-25.9,1.8-52.2,15.2-74.6c2.3-3.3,6.8-4.2,10.2-1.9c3.2,2.2,4.1,6.6,2.1,9.9
	c-11.3,19.5-15.8,42.1-12.9,64.5c1.3,9,9.3,22.9,18.5,39.1c22.1,38.6,52.3,91.5,31.7,144.3C243.5,448.7,240.8,450.5,237.8,450.5
	L237.8,450.5z"/>
<path class="st0" d="M201.2,201.3c-4,0-7.3-3.2-7.4-7.2c0-4,3.2-7.3,7.2-7.4c13-0.3,23.7-8.6,35-17.4c2-1.5,4-3.1,6-4.6
	c13.1-9.9,31.1-23.5,52.1-23.9c4,0,7.3,3.2,7.5,7.2c0.1,4-3.1,7.4-7.2,7.4c-15,0.3-28.6,9.6-43.5,20.9c-1.9,1.5-3.9,3-5.8,4.5
	c-12.7,9.9-25.8,20.1-43.7,20.5L201.2,201.3z"/>
<path class="st0" d="M393.5,158.7c-4,0-7.3-3.3-7.3-7.3c0-3.2,2.1-6,5.1-7c39.1-12.2,38.3-63.7,38.3-64.3c-0.1-4,3.1-7.4,7.1-7.5
	c0,0,0,0,0,0c4,0,7.3,3.1,7.5,7.1c0.1,2.6,1,63.1-48.5,78.6C395,158.6,394.2,158.7,393.5,158.7z"/>
<path class="st0" d="M457.9,244.9c-3.5,0-6.5-2.5-7.2-6c-2.6-20.7-17.2-37.9-37.1-43.9c-3.9-0.9-6.4-4.8-5.5-8.7
	c0.9-3.9,4.8-6.4,8.7-5.5c25.7,7.3,44.7,29.1,48.3,55.5c0.7,4-1.9,7.8-5.9,8.5c0,0,0,0,0,0C458.8,244.8,458.4,244.9,457.9,244.9
	L457.9,244.9z"/>
<path class="st0" d="M428.5,166.4c-4,0-7.3-3.3-7.3-7.3c0-3.5,2.5-6.5,5.9-7.2c25.6-4.9,40.4-30.5,40.5-30.7c2-3.5,6.5-4.7,10-2.6
	c3.4,2,4.6,6.3,2.8,9.8c-0.7,1.3-18.1,31.8-50.5,37.9C429.4,166.4,429,166.4,428.5,166.4L428.5,166.4z"/>
</svg>
