<?xml version="1.0" encoding="utf-8"?>
<!-- Generator: Adobe Illustrator 26.0.1, SVG Export Plug-In . SVG Version: 6.00 Build 0)  -->
<svg version="1.1" id="Capa_1" xmlns="http://www.w3.org/2000/svg" xmlns:xlink="http://www.w3.org/1999/xlink" x="0px" y="0px"
	 viewBox="0 0 512 512" style="enable-background:new 0 0 512 512;" xml:space="preserve">
<style type="text/css">
	.st0{fill:none;stroke:#0B4DF5;stroke-width:15;stroke-linecap:round;stroke-linejoin:round;stroke-miterlimit:10;}
</style>
<g>
	<g>
		<polyline class="st0" points="437.6,448.5 404.6,481.5 371.6,448.5 		"/>
		<line class="st0" x1="404.6" y1="481.5" x2="404.6" y2="392.5"/>
	</g>
	<g>
		<polyline class="st0" points="332.6,471.5 299.6,504.5 266.6,471.5 		"/>
		<line class="st0" x1="299.6" y1="504.5" x2="299.6" y2="415.5"/>
	</g>
	<g>
		<polyline class="st0" points="227.6,448.5 194.6,481.5 161.6,448.5 		"/>
		<line class="st0" x1="194.6" y1="481.5" x2="194.6" y2="392.5"/>
	</g>
	<circle class="st0" cx="466" cy="46" r="38.5"/>
	<circle class="st0" cx="46" cy="391" r="38.5"/>
	<g>
		<path class="st0" d="M223.7,24.3c19,13.4,32.6,33.8,37.2,57.4"/>
		<path class="st0" d="M103.3,240.2H80.2c-20.1,0-38.2-8.1-51.4-21.3c-13.2-13.2-21.3-31.3-21.3-51.4c0-36.1,26.3-66.1,60.9-71.7
			C74.4,94.8,79,90,80,84c7.4-43.4,45.2-76.4,90.7-76.4c7.3,0,14.4,0.8,21.2,2.5"/>
		<path class="st0" d="M354.2,365.7h59.4c50.2,0,90.9-40.7,90.9-90.9l0,0c0-45.2-32.9-82.6-76.1-89.7c-7.5-1.2-13.3-7.3-14.6-14.8
			c-9.2-54.3-56.5-95.6-113.4-95.6s-104.1,41.3-113.4,95.6c-1.3,7.5-7,13.6-14.6,14.8c-43.2,7.1-76.1,44.5-76.1,89.7l0,0
			c0,50.2,40.7,90.9,90.9,90.9h131.9"/>
		<g>
			<g>
				<path class="st0" d="M252.8,222.4c-6.3-4.2-13.8-6.7-22-6.7c-21.7,0-39.3,17.6-39.3,39.3s17.6,39.3,39.3,39.3
					c8.8,0,16.1-2.9,21.6-7.8c1.1-1,2.2-2.1,3.2-3.3"/>
			</g>
			<g>
				<path class="st0" d="M418.1,313.8c0,0-30.9,0.4-32.4-0.1s2.3-3.1,22.6-32c3.8-5.4,5.9-10,6.8-13.8l0.3-2.5
					c0-9-7.3-16.3-16.3-16.3c-7.9,0-14.5,5.6-15.9,13.1"/>
			</g>
			<circle class="st0" cx="317.7" cy="254.9" r="39.3"/>
		</g>
	</g>
</g>
</svg>
