<svg xmlns="http://www.w3.org/2000/svg" viewBox="0 0 70 70"><defs><style>.cls-1{fill:#0b4df5;fill-rule:evenodd;}</style></defs><g id="Layer_21" data-name="Layer 21"><path class="cls-1" d="M8.24,47.65H8A8,8,0,0,1,0,39.7V33.52a8,8,0,0,1,8-8h2.78V25.5a24.27,24.27,0,0,1,48.54,0v.07h2.78a8,8,0,0,1,8,8V39.7a8,8,0,0,1-8,7.95H58.19a1.37,1.37,0,0,1-1.38-1.38V25.5a21.81,21.81,0,0,0-43.62,0V46.27a1.37,1.37,0,0,1-1.38,1.38H10.7A14.19,14.19,0,0,0,24.89,61.73h2.38A5.81,5.81,0,0,1,33,57.15h4.1a5.81,5.81,0,1,1,0,11.62H33a5.8,5.8,0,0,1-5.68-4.58H24.89A16.65,16.65,0,0,1,8.24,47.65ZM40.4,63a3.35,3.35,0,0,0-3.35-3.35H33a3.35,3.35,0,0,0,0,6.7h4.1A3.35,3.35,0,0,0,40.4,63ZM10.73,28H8a5.5,5.5,0,0,0-5.49,5.49V39.7A5.5,5.5,0,0,0,8,45.19h2.78Zm48.54,0V45.19h2.78a5.5,5.5,0,0,0,5.49-5.49V33.52A5.5,5.5,0,0,0,62.05,28Z"/></g></svg>