<svg xmlns="http://www.w3.org/2000/svg" viewBox="0 0 70 70"><defs><style>.cls-1{fill:#0b4df5;}</style></defs><g id="Layer_21" data-name="Layer 21"><path class="cls-1" d="M69,27.81V27.6a1.3,1.3,0,0,0-.48-1.09L60.35,20V16.8a5.47,5.47,0,0,0-5.47-5.46H49.51L36,.56h0A1.35,1.35,0,0,0,34,.56h0L20.49,11.34H15.12A5.47,5.47,0,0,0,9.65,16.8V20l-8.12,6.5a1.3,1.3,0,0,0-.48,1.09V63.78a6.33,6.33,0,0,0,6.49,6.15H62.46A6.33,6.33,0,0,0,69,63.78v-36Zm-8.6-4.47,5.32,4.26-5.32,4.26ZM35,3.05l10.35,8.29H24.65ZM12.25,16.8a2.87,2.87,0,0,1,2.87-2.86H54.88a2.87,2.87,0,0,1,2.87,2.86v3.85h0V33.94L35,52.15,12.25,33.94Zm-2.6,6.54v8.52L4.33,27.6Zm-6,40.44V30.39L24.8,47.32,4,65.3A3.28,3.28,0,0,1,3.65,63.78Zm58.81,3.55H7.54A4.19,4.19,0,0,1,6,67L26.87,49,34,54.65h0a1.29,1.29,0,0,0,1,.48h0a1.29,1.29,0,0,0,1-.48h0L43.13,49,64,67a4.19,4.19,0,0,1-1.55.29Zm3.89-3.55A3.28,3.28,0,0,1,66,65.3l-20.78-18L66.35,30.39ZM21.62,26.24h26.9a1.3,1.3,0,0,0,0-2.6H21.62a1.3,1.3,0,0,0,0,2.6Zm28.2,6.52a1.3,1.3,0,0,0-1.3-1.3H21.62a1.3,1.3,0,1,0,0,2.6h26.9A1.3,1.3,0,0,0,49.82,32.76Z"/></g></svg>