<?xml version="1.0" encoding="utf-8"?>
<!-- Generator: Adobe Illustrator 26.0.1, SVG Export Plug-In . SVG Version: 6.00 Build 0)  -->
<svg version="1.1" id="Layer_1" xmlns="http://www.w3.org/2000/svg" xmlns:xlink="http://www.w3.org/1999/xlink" x="0px" y="0px"
	 viewBox="0 0 512 512" style="enable-background:new 0 0 512 512;" xml:space="preserve">
<style type="text/css">
	.st0{fill:#0B4DF5;}
</style>
<g>
	<g>
		<path class="st0" d="M186.3,251.1c-10.8,0-21-4.2-28.8-11.9s-11.9-17.9-11.9-28.8c0-10.9,4.2-21,11.9-28.8s17.9-11.9,28.8-11.9
			c10.9,0,21,4.2,28.8,11.9c2.3,2.3,2.3,5.8,0,8.1s-5.8,2.3-8.1,0c-11.4-11.4-30-11.4-41.4,0c-5.6,5.6-8.5,12.9-8.5,20.7
			c0,7.9,3.1,15.1,8.5,20.7c11.4,11.4,30,11.4,41.4,0c2.3-2.3,5.8-2.3,8.1,0c2.3,2.3,2.3,5.8,0,8.1
			C207.3,246.9,197.1,251.1,186.3,251.1z"/>
		<path class="st0" d="M273.5,251.1c-22.4,0-40.6-18.2-40.6-40.6s18.2-40.6,40.6-40.6c22.4,0,40.6,18.2,40.6,40.6
			S295.9,251.1,273.5,251.1L273.5,251.1z M273.5,181.1c-16.2,0-29.2,13.1-29.2,29.2s13.1,29.2,29.2,29.2c16.2,0,29.2-13.1,29.2-29.2
			S289.7,181.1,273.5,181.1L273.5,181.1z"/>
		<path class="st0" d="M360.8,261.3h-22.5c-2.2,0-4.1-1.3-5.1-3.2c-0.9-1.9-0.8-4.2,0.6-5.9l18.5-24.6c0.1-0.2,0.3-0.5,0.6-0.6
			c2.5-2.5,2.5-6.6,0-9.1c-2.5-2.5-6.6-2.5-9.1,0c-2.3,2.3-5.8,2.3-8.1,0c-2.3-2.3-2.3-5.8,0-8.1c6.9-6.9,18.2-6.9,25.1,0
			c3.4,3.4,5.2,7.9,5.2,12.6c0,4.7-1.7,9-4.9,12.3L349.6,250h11.2c3.2,0,5.7,2.5,5.7,5.7S363.9,261.3,360.8,261.3z"/>
	</g>
	<path class="st0" d="M242.1,354.4h-97.7c-3.2,0-5.7-2.5-5.7-5.7s2.5-5.7,5.7-5.7h97.7c3.2,0,5.7,2.5,5.7,5.7
		S245.2,354.4,242.1,354.4z"/>
	<path class="st0" d="M416.4,354.4h-20.8c-3.2,0-5.7-2.5-5.7-5.7s2.5-5.7,5.7-5.7h20.8c43.2,0,78.5-35.3,78.5-78.5
		S459.7,186,416.4,186h-0.3c-0.2,0-0.5,0-0.6,0c-1.7,0-3.3-0.7-4.3-2c-1-1.4-1.6-3-1.3-4.6c0.6-3.4,0.8-6.8,0.8-10.1
		c0-33.8-27.5-61.3-61.3-61.3c-9.4,0-18.5,2-27,6.3c-1.5,0.7-3.2,0.8-4.8,0.1c-1.5-0.7-2.7-1.9-3.2-3.5
		c-8.1-25.6-31.6-42.9-58.5-42.9c-27,0-50.4,17.2-58.5,42.9c-0.5,1.6-1.7,2.8-3.2,3.5c-1.5,0.7-3.3,0.6-4.8-0.1
		c-8.4-4.1-17.5-6.3-27-6.3c-33.8,0-61.3,27.5-61.3,61.3c0,3.3,0.3,6.7,0.8,10.1c0.2,1.6-0.2,3.3-1.3,4.6c-1,1.3-2.6,2-4.3,2
		c-0.2,0-0.5,0-0.6,0h-0.3c-43.3,0-78.5,35.3-78.5,78.5c0,43.3,35.3,78.5,78.5,78.5h20.8c3.2,0,5.7,2.5,5.7,5.7s-2.5,5.7-5.7,5.7
		H95.6C46,354.4,5.7,314,5.7,264.5c0-47.7,37.4-86.9,84.4-89.8c-0.1-1.8-0.2-3.8-0.2-5.6c0-40,32.7-72.7,72.7-72.7
		c9.1,0,17.9,1.6,26.2,4.9c11.2-27.1,37.4-44.9,67.2-44.9c29.8,0,56.1,17.9,67.2,44.9c8.3-3.2,17.1-4.9,26.2-4.9
		c40,0,72.7,32.7,72.7,72.7c0,1.8-0.1,3.6-0.2,5.6c47,2.8,84.4,42,84.4,89.8C506.3,314.1,466,354.4,416.4,354.4z"/>
	<path class="st0" d="M367.7,354.4H270c-3.2,0-5.7-2.5-5.7-5.7s2.5-5.7,5.7-5.7h97.7c3.2,0,5.7,2.5,5.7,5.7S370.9,354.4,367.7,354.4
		z"/>
	<path class="st0" d="M256,455.5c-1.7,0-3.3-0.8-4.4-2.2l-34.2-42.1c-1.4-1.7-1.7-4.1-0.7-6c0.9-1.9,3-3.3,5.1-3.3h14.6v-98.8
		c0-3.2,2.5-5.7,5.7-5.7h27.9c3.2,0,5.7,2.5,5.7,5.7v98.8h14.6c2.2,0,4.2,1.3,5.1,3.3c0.9,1.9,0.7,4.3-0.7,6l-34.2,42.2
		C259.3,454.7,257.7,455.5,256,455.5L256,455.5z M233.7,413.2l22.3,27.5l22.3-27.4H270c-3.2,0-5.7-2.5-5.7-5.7v-98.8h-16.5v98.8
		c0,3.2-2.5,5.7-5.7,5.7L233.7,413.2z"/>
	<g>
		<path class="st0" d="M130.3,455.5c-1.7,0-3.3-0.8-4.4-2.2l-34.2-42.2c-1.4-1.7-1.7-4.1-0.7-6c0.9-1.9,3-3.3,5.1-3.3h14.6V303
			c0-3.2,2.5-5.7,5.7-5.7h27.9c3.2,0,5.7,2.5,5.7,5.7v98.8h14.6c2.2,0,4.2,1.3,5.1,3.3c0.9,1.9,0.7,4.3-0.7,6l-34.2,42.2
			C133.7,454.7,132.1,455.5,130.3,455.5L130.3,455.5z M108.1,413.2l22.3,27.4l22.3-27.4h-8.3c-3.2,0-5.7-2.5-5.7-5.7v-98.8h-16.5
			v98.8c0,3.2-2.5,5.7-5.7,5.7L108.1,413.2z"/>
		<path class="st0" d="M381.7,455.5c-1.7,0-3.3-0.8-4.4-2.2L343,411.1c-1.4-1.7-1.7-4.1-0.7-6c0.9-1.9,3-3.3,5.1-3.3H362V303
			c0-3.2,2.5-5.7,5.7-5.7h27.9c3.2,0,5.7,2.5,5.7,5.7v98.8h14.6c2.2,0,4.2,1.3,5.1,3.3c0.9,1.9,0.7,4.3-0.7,6L386,453.3
			C385,454.7,383.4,455.5,381.7,455.5L381.7,455.5z M359.4,413.2l22.3,27.4l22.3-27.4h-8.3c-3.2,0-5.7-2.5-5.7-5.7v-98.8h-16.5v98.8
			c0,3.2-2.5,5.7-5.7,5.7L359.4,413.2z"/>
	</g>
</g>
</svg>
