<?xml version="1.0" encoding="utf-8"?>
<!-- Generator: Adobe Illustrator 26.0.1, SVG Export Plug-In . SVG Version: 6.00 Build 0)  -->
<svg version="1.1" id="Capa_1" xmlns="http://www.w3.org/2000/svg" xmlns:xlink="http://www.w3.org/1999/xlink" x="0px" y="0px"
	 viewBox="0 0 512 512" style="enable-background:new 0 0 512 512;" xml:space="preserve">
<style type="text/css">
	.st0{fill:#0B4DF5;}
</style>
<g>
	<path class="st0" d="M119.3,332c0.5,0,1.5,0.2,2.1,1.2l22.4,38.8l-5.4-0.5c-4.1-0.4-7.8,2.6-8.2,6.7c-0.4,4.1,2.6,7.8,6.7,8.2
		l19.6,2c2.8,0.4,6-0.6,8.3-4.3l7.6-17c1.7-3.8,0-8.2-3.8-9.9c-3.8-1.7-8.2,0-9.9,3.8l-1.7,3.8l-22.5-39c-3.1-5.5-8.8-8.7-15.1-8.7
		s-11.9,3.3-15.1,8.7l-10.4,17.9c-2.1,3.6-0.8,8.2,2.7,10.2c3.6,2.1,8.2,0.8,10.2-2.7l10.4-17.9C117.8,332.2,118.8,332,119.3,332
		L119.3,332z"/>
	<path class="st0" d="M179.2,403.3c-2.1-3.6-6.7-4.8-10.2-2.7c-3.6,2.1-4.8,6.7-2.7,10.2l11.4,19.7c0.6,1.1,0.3,2,0,2.4
		s-0.9,1.2-2.1,1.2h-42.6l2.5-2.9c2.7-3.1,2.4-7.9-0.8-10.6s-7.9-2.4-10.6,0.8l-13.2,15.3c-2.3,2.6-2.5,7.1,0.1,9.9l13.2,14.7
		c1.5,1.6,3.5,2.5,5.6,2.5c1.8,0,3.6-0.6,5-1.9c3.1-2.8,3.3-7.5,0.6-10.6l-2-2.2h42.1c6.3,0,11.9-3.3,15.1-8.7
		c3.1-5.5,3.1-12,0-17.4L179.2,403.3z"/>
	<path class="st0" d="M92.9,371.1c-1.2-2.1-2-6.2-8.7-5.5l-19.4,3.8c-4.1,0.8-6.7,4.7-5.9,8.8s4.7,6.7,8.8,5.9l3.3-0.6L48.1,423
		c-3.2,5.5-3.2,12,0,17.4s8.8,8.7,15.1,8.7h23.9c4.1,0,7.5-3.4,7.5-7.5s-3.4-7.5-7.5-7.5H63.2c-1.2,0-1.8-0.8-2.1-1.2
		s-0.6-1.4,0-2.4l22.7-39.2l1.1,3.3c1,3.1,4,5.1,7.1,5.1c0.8,0,1.6-0.1,2.4-0.4c3.9-1.3,6.1-5.5,4.8-9.5L92.9,371.1z"/>
	<path class="st0" d="M487.8,310.5h-15.5v-183c0-2.9-1.7-5.5-4.3-6.8c-2.6-1.2-5.7-0.9-8,1l-119.3,97.4v-91.6c0-2.9-1.7-5.5-4.3-6.8
		s-5.7-0.9-8,1l-119.7,98.4l-3.3-37.5c8.1-1.5,14.3-8.6,14.3-17.2v-17c0-9.6-7.9-17.5-17.5-17.5h-20.9c-4.1,0-7.5,3.4-7.5,7.5
		s3.4,7.5,7.5,7.5h20.9c1.4,0,2.5,1.1,2.5,2.5v17c0,1.4-1.1,2.5-2.5,2.5h-166c-1.4,0-2.5-1.1-2.5-2.5v-17c0-1.4,1.1-2.5,2.5-2.5
		h115.1c4.1,0,7.5-3.4,7.5-7.5s-3.4-7.5-7.5-7.5h-24.1v-30c4.7,0.7,10.6,1.3,17.1,1.3c13.3,0,29-2.5,41.3-12
		c25.9-20,24.8-61.8,24.8-63.6c-0.1-3.3-2.4-6.1-5.5-7c-1.7-0.5-42.7-11.2-68.5,8.7c-7.3,5.7-12.5,13-16.1,20.8
		c-4.4-12.6-11.6-25.4-23.4-34.5C65.6-9.7,15.1,3.5,13,4.1c-3.2,0.9-5.4,3.7-5.5,7c-0.1,2.2-1.3,53.7,30.3,78.2
		C52.8,100.9,72,104,88.3,104c9.5,0,18-1.1,24-2.1V131h-76c-9.6,0-17.5,7.9-17.5,17.5v17c0,8.6,6.2,15.7,14.3,17.2L6.7,482.1
		c-0.7,7.7,1.9,15.3,7.1,21s12.6,8.9,20.3,8.9h453.8c9.7,0,17.6-7.9,17.6-17.5v-166C505.4,318.8,497.4,310.5,487.8,310.5
		L487.8,310.5z M145.8,40.3c15-11.6,38.9-9.2,49.7-7.3c-0.6,10.8-3.8,33.8-18.8,45.4c-14.9,11.5-38.3,9.3-49.3,7.4v-4.9
		C128.6,69.1,132.8,50.4,145.8,40.3z M46.9,77.4C26.8,61.9,23.2,30.3,22.6,17.4c13-2.4,45.2-6.4,65.4,9.2
		c18.5,14.3,23.1,42.2,24.2,56.6c-0.1,1.3-0.2,2.5-0.2,3.5C98.7,89.2,66.9,92.9,46.9,77.4z M325.8,143.4v23.3l-113.4,93.8l-2-22.2
		L325.8,143.4z M190.5,183l3.9,44.5H44.2l3.9-44.5H190.5z M42.9,242.5h152.8l2.3,26.5H40.6L42.9,242.5z M434.7,424.1H288.2v-21.4
		h146.6L434.7,424.1L434.7,424.1z M288.2,439.1h146.6v21.4H288.2V439.1z M434.7,387.7H288.2v-19.2c0-1.4,1.1-2.5,2.5-2.5h141.6
		c1.4,0,2.5,1.1,2.5,2.5L434.7,387.7L434.7,387.7z M288.2,475.6h146.6V497H288.2V475.6z M490.4,494.5c0,1.4-1.2,2.5-2.6,2.5h-38.1
		V368.5c0-9.6-7.9-17.5-17.5-17.5H290.7c-9.6,0-17.5,7.9-17.5,17.5V497h-44.1c2.3-4.6,3.4-9.7,2.9-14.9l-7.5-84.7
		c-0.4-4.1-4-7.2-8.1-6.8c-4.1,0.4-7.2,4-6.8,8.1l7.5,84.7c0.3,3.5-0.8,6.9-3.2,9.5c-2.4,2.6-5.7,4.1-9.2,4.1
		c-4.4,0-166.5,0-170.5,0c-3.5,0-6.8-1.4-9.2-4.1s-3.5-6-3.2-9.5L39.2,284h160.2l7.5,84.7c0.3,3.9,3.6,6.8,7.5,6.8
		c0.2,0,0.4,0,0.7,0c4.1-0.4,7.2-4,6.8-8.1l-3.7-41.8h59.3c4.1,0,7.5-3.4,7.5-7.5s-3.4-7.5-7.5-7.5h-60.6l-2.8-31.9l111.8-92.5V279
		c0,2.9,1.7,5.5,4.3,6.8c1,0.5,2.1,0.7,3.2,0.7c1.7,0,3.4-0.6,4.8-1.7l67.5-55.6c3.2-2.6,3.7-7.4,1-10.6c-2.6-3.2-7.4-3.6-10.6-1
		l-55.2,45.5v-24.6l116.5-95.1V167l-37.6,31c-3.2,2.6-3.7,7.4-1,10.6c1.5,1.8,3.6,2.7,5.8,2.7c1.7,0,3.4-0.6,4.8-1.7l28.1-23.1v124
		H307.4c-4.1,0-7.5,3.4-7.5,7.5s3.4,7.5,7.5,7.5h180.4c1.3,0,2.6,1.5,2.6,3L490.4,494.5z"/>
</g>
</svg>
